<svg width="364" height="237" viewBox="0 0 364 237" fill="none" xmlns="http://www.w3.org/2000/svg">
<rect x="181.516" width="61.2868" height="236.859" rx="10" fill="white"/>
<path d="M13.1384 67.8672L4.58209 102.275C3.09023 108.275 2.33594 114.434 2.33594 120.616V160.796C2.33594 180.678 18.4537 196.796 38.336 196.796H325.955C345.838 196.796 361.955 180.678 361.955 160.796V117.702C352.426 125.409 343.327 116.463 336.569 104.563C330.538 93.9426 317.257 88.3828 306.594 94.3375C297.206 99.5801 285.344 96.0898 280.291 86.5986L274.905 76.4812C267.782 63.1009 251.897 57.0038 237.651 62.182L229.511 65.1408C222.41 67.7218 214.454 65.8175 209.292 60.3011C199.57 49.9134 182.287 53.6146 177.672 67.0724L165.146 103.6C162.429 111.52 151.415 112.016 147.999 104.371C146.116 100.159 141.41 97.9852 136.982 99.2834L132.523 100.591C125.96 102.515 118.943 99.6068 115.665 93.6042L107.775 79.1547C103.628 71.561 93.3332 70.1131 87.2527 76.2683C81.371 82.2222 71.4664 81.095 67.0731 73.9716L58.9127 60.7402C47.2303 41.7984 18.5089 46.2702 13.1384 67.8672Z" fill="url(#paint0_linear_179528_79066)"/>
<path d="M2.98438 111.601L13.4826 68.1508C18.6962 46.5723 47.3649 42.0108 59.0183 60.9056L67.0767 73.9716C71.47 81.095 81.3746 82.2222 87.2563 76.2683V76.2683C93.3368 70.1131 103.632 71.561 107.778 79.1547L115.669 93.6042C118.947 99.6068 125.964 102.515 132.527 100.591L136.986 99.2834C141.414 97.9852 146.12 100.159 148.002 104.371V104.371C151.419 112.016 162.433 111.52 165.149 103.6L177.675 67.0724C182.29 53.6146 199.574 49.9134 209.295 60.3011V60.3011C214.458 65.8175 222.414 67.7218 229.514 65.1408L237.655 62.182C251.901 57.0037 267.786 63.1009 274.909 76.4812L280.295 86.5986C285.347 96.0898 297.21 99.5801 306.598 94.3375V94.3375C317.26 88.3828 330.541 93.9426 336.572 104.563C343.33 116.463 352.43 125.409 361.959 117.702" stroke="#F04924" stroke-width="4" stroke-linecap="round"/>
<g filter="url(#filter0_d_179528_79066)">
<ellipse cx="195.177" cy="54.1603" rx="2.1455" ry="2.40638" fill="#F04924"/>
<path d="M195.177 50.2539C197.347 50.2539 198.822 52.1692 198.822 54.1602C198.822 56.1511 197.347 58.0664 195.177 58.0664C193.006 58.0664 191.531 56.1511 191.531 54.1602C191.531 52.1692 193.006 50.2539 195.177 50.2539Z" stroke="white" stroke-width="3"/>
</g>
<defs>
<filter id="filter0_d_179528_79066" x="171.031" y="27.7539" width="52.2891" height="52.8125" filterUnits="userSpaceOnUse" color-interpolation-filters="sRGB">
<feFlood flood-opacity="0" result="BackgroundImageFix"/>
<feColorMatrix in="SourceAlpha" type="matrix" values="0 0 0 0 0 0 0 0 0 0 0 0 0 0 0 0 0 0 127 0" result="hardAlpha"/>
<feMorphology radius="7" operator="dilate" in="SourceAlpha" result="effect1_dropShadow_179528_79066"/>
<feOffset dx="2"/>
<feGaussianBlur stdDeviation="7"/>
<feComposite in2="hardAlpha" operator="out"/>
<feColorMatrix type="matrix" values="0 0 0 0 0.933333 0 0 0 0 0.32549 0 0 0 0 0.309804 0 0 0 0.1 0"/>
<feBlend mode="normal" in2="BackgroundImageFix" result="effect1_dropShadow_179528_79066"/>
<feBlend mode="normal" in="SourceGraphic" in2="effect1_dropShadow_179528_79066" result="shape"/>
</filter>
<linearGradient id="paint0_linear_179528_79066" x1="238.126" y1="186.248" x2="244.852" y2="-214.687" gradientUnits="userSpaceOnUse">
<stop stop-color="white" stop-opacity="0.7"/>
<stop offset="1" stop-color="#EE534F"/>
</linearGradient>
</defs>
</svg>
