<svg width="366" height="237" viewBox="0 0 366 237" fill="none" xmlns="http://www.w3.org/2000/svg">
<rect x="181.516" width="61.2868" height="236.859" rx="10" fill="white"/>
<path d="M13.1384 67.8672L4.58209 102.275C3.09023 108.275 2.33594 114.434 2.33594 120.616V160.796C2.33594 180.678 18.4537 196.796 38.336 196.796H325.955C345.838 196.796 361.955 180.678 361.955 160.796V117.702C352.426 125.409 343.327 116.463 336.569 104.563C330.538 93.9426 317.257 88.3828 306.594 94.3375C297.206 99.5801 285.344 96.0898 280.291 86.5986L274.905 76.4812C267.782 63.1009 251.897 57.0038 237.651 62.182L229.511 65.1408C222.41 67.7218 214.454 65.8175 209.292 60.3011C199.57 49.9134 182.287 53.6146 177.672 67.0724L165.146 103.6C162.429 111.52 151.415 112.016 147.999 104.371C146.116 100.159 141.41 97.9852 136.982 99.2834L132.523 100.591C125.96 102.515 118.943 99.6068 115.665 93.6042L107.775 79.1547C103.628 71.561 93.3332 70.1131 87.2527 76.2683C81.371 82.2222 71.4664 81.095 67.0731 73.9716L58.9127 60.7402C47.2303 41.7984 18.5089 46.2702 13.1384 67.8672Z" fill="url(#paint0_linear_179528_79065)"/>
<path d="M2.98438 111.601L13.4826 68.1508C18.6962 46.5723 47.3649 42.0108 59.0183 60.9056L67.0767 73.9716C71.47 81.095 81.3746 82.2222 87.2563 76.2683V76.2683C93.3368 70.1131 103.632 71.561 107.778 79.1547L115.669 93.6042C118.947 99.6068 125.964 102.515 132.527 100.591L136.986 99.2834C141.414 97.9852 146.12 100.159 148.002 104.371V104.371C151.419 112.016 162.433 111.52 165.149 103.6L177.675 67.0724C182.29 53.6146 199.574 49.9134 209.295 60.3011V60.3011C214.458 65.8175 222.414 67.7218 229.514 65.1408L237.655 62.182C251.901 57.0037 267.786 63.1009 274.909 76.4812L280.295 86.5986C285.347 96.0898 297.21 99.5801 306.598 94.3375V94.3375C317.26 88.3828 330.541 93.9426 336.572 104.563C343.33 116.463 352.43 125.409 361.959 117.702" stroke="#F04924" stroke-width="4" stroke-linecap="round"/>
<g filter="url(#filter0_d_179528_79065)">
<ellipse cx="195.177" cy="54.1603" rx="2.1455" ry="2.40638" fill="#F04924"/>
<path d="M195.177 50.2539C197.347 50.2539 198.822 52.1692 198.822 54.1602C198.822 56.1511 197.347 58.0664 195.177 58.0664C193.006 58.0664 191.531 56.1511 191.531 54.1602C191.531 52.1692 193.006 50.2539 195.177 50.2539Z" stroke="white" stroke-width="3"/>
</g>
<path d="M3.45455 208.564H5.31889L8.56037 216.479H8.67969L11.9212 208.564H13.7855V218.746H12.3239V211.378H12.2294L9.22656 218.731H8.01349L5.01065 211.373H4.91619V218.746H3.45455V208.564Z" fill="#38426F"/>
<path d="M65.1712 209.887V208.564H73.0511V209.887H69.8743V218.746H68.343V209.887H65.1712Z" fill="#38426F"/>
<path d="M124.526 218.746L121.702 208.564H123.318L125.302 216.449H125.396L127.46 208.564H129.06L131.124 216.454H131.218L133.197 208.564H134.817L131.989 218.746H130.442L128.3 211.12H128.22L126.077 218.746H124.526Z" fill="#38426F"/>
<path d="M185.32 209.887V208.564H193.2V209.887H190.023V218.746H188.491V209.887H185.32Z" fill="#38426F"/>
<path d="M242.681 218.746V208.564H248.995V209.887H244.217V212.989H248.543V214.306H244.217V218.746H242.681Z" fill="#38426F"/>
<path d="M305.094 211.239C305.041 210.768 304.822 210.404 304.438 210.145C304.053 209.883 303.569 209.752 302.986 209.752C302.568 209.752 302.207 209.819 301.902 209.951C301.597 210.081 301.36 210.26 301.191 210.488C301.025 210.714 300.942 210.971 300.942 211.259C300.942 211.501 300.999 211.71 301.112 211.885C301.228 212.061 301.378 212.208 301.564 212.328C301.753 212.444 301.955 212.542 302.17 212.621C302.386 212.697 302.593 212.76 302.792 212.81L303.786 213.069C304.111 213.148 304.444 213.256 304.786 213.392C305.127 213.528 305.443 213.707 305.735 213.929C306.027 214.151 306.262 214.426 306.441 214.754C306.623 215.082 306.714 215.475 306.714 215.932C306.714 216.509 306.565 217.021 306.267 217.468C305.972 217.916 305.543 218.269 304.979 218.527C304.419 218.786 303.741 218.915 302.946 218.915C302.184 218.915 301.524 218.794 300.967 218.552C300.411 218.31 299.975 217.967 299.66 217.523C299.345 217.076 299.171 216.545 299.138 215.932H300.679C300.709 216.3 300.828 216.607 301.037 216.852C301.249 217.094 301.519 217.275 301.847 217.394C302.179 217.51 302.542 217.568 302.936 217.568C303.37 217.568 303.756 217.5 304.094 217.364C304.436 217.225 304.704 217.033 304.9 216.787C305.095 216.539 305.193 216.249 305.193 215.917C305.193 215.616 305.107 215.369 304.935 215.176C304.766 214.984 304.535 214.825 304.244 214.699C303.955 214.573 303.629 214.462 303.264 214.366L302.061 214.038C301.246 213.816 300.599 213.489 300.122 213.059C299.648 212.628 299.411 212.058 299.411 211.348C299.411 210.762 299.57 210.25 299.888 209.812C300.207 209.375 300.638 209.035 301.181 208.793C301.725 208.548 302.338 208.425 303.021 208.425C303.71 208.425 304.318 208.546 304.845 208.788C305.375 209.03 305.793 209.363 306.098 209.787C306.403 210.208 306.562 210.692 306.575 211.239H305.094Z" fill="#38426F"/>
<path d="M363.016 211.239C362.963 210.768 362.744 210.404 362.359 210.145C361.975 209.883 361.491 209.752 360.908 209.752C360.49 209.752 360.129 209.819 359.824 209.951C359.519 210.081 359.282 210.26 359.113 210.488C358.947 210.714 358.864 210.971 358.864 211.259C358.864 211.501 358.921 211.71 359.033 211.885C359.149 212.061 359.3 212.208 359.486 212.328C359.675 212.444 359.877 212.542 360.092 212.621C360.308 212.697 360.515 212.76 360.714 212.81L361.708 213.069C362.033 213.148 362.366 213.256 362.707 213.392C363.049 213.528 363.365 213.707 363.657 213.929C363.949 214.151 364.184 214.426 364.363 214.754C364.545 215.082 364.636 215.475 364.636 215.932C364.636 216.509 364.487 217.021 364.189 217.468C363.894 217.916 363.465 218.269 362.901 218.527C362.341 218.786 361.663 218.915 360.868 218.915C360.106 218.915 359.446 218.794 358.889 218.552C358.332 218.31 357.897 217.967 357.582 217.523C357.267 217.076 357.093 216.545 357.06 215.932H358.601C358.631 216.3 358.75 216.607 358.959 216.852C359.171 217.094 359.441 217.275 359.769 217.394C360.101 217.51 360.464 217.568 360.858 217.568C361.292 217.568 361.678 217.5 362.016 217.364C362.358 217.225 362.626 217.033 362.822 216.787C363.017 216.539 363.115 216.249 363.115 215.917C363.115 215.616 363.029 215.369 362.857 215.176C362.688 214.984 362.457 214.825 362.165 214.699C361.877 214.573 361.551 214.462 361.186 214.366L359.983 214.038C359.168 213.816 358.521 213.489 358.044 213.059C357.57 212.628 357.333 212.058 357.333 211.348C357.333 210.762 357.492 210.25 357.81 209.812C358.129 209.375 358.559 209.035 359.103 208.793C359.647 208.548 360.26 208.425 360.942 208.425C361.632 208.425 362.24 208.546 362.767 208.788C363.297 209.03 363.715 209.363 364.02 209.787C364.325 210.208 364.484 210.692 364.497 211.239H363.016Z" fill="#38426F"/>
<defs>
<filter id="filter0_d_179528_79065" x="171.031" y="27.7539" width="52.2891" height="52.8125" filterUnits="userSpaceOnUse" color-interpolation-filters="sRGB">
<feFlood flood-opacity="0" result="BackgroundImageFix"/>
<feColorMatrix in="SourceAlpha" type="matrix" values="0 0 0 0 0 0 0 0 0 0 0 0 0 0 0 0 0 0 127 0" result="hardAlpha"/>
<feMorphology radius="7" operator="dilate" in="SourceAlpha" result="effect1_dropShadow_179528_79065"/>
<feOffset dx="2"/>
<feGaussianBlur stdDeviation="7"/>
<feComposite in2="hardAlpha" operator="out"/>
<feColorMatrix type="matrix" values="0 0 0 0 0.933333 0 0 0 0 0.32549 0 0 0 0 0.309804 0 0 0 0.1 0"/>
<feBlend mode="normal" in2="BackgroundImageFix" result="effect1_dropShadow_179528_79065"/>
<feBlend mode="normal" in="SourceGraphic" in2="effect1_dropShadow_179528_79065" result="shape"/>
</filter>
<linearGradient id="paint0_linear_179528_79065" x1="238.126" y1="186.248" x2="244.852" y2="-214.687" gradientUnits="userSpaceOnUse">
<stop stop-color="white" stop-opacity="0.7"/>
<stop offset="1" stop-color="#EE534F"/>
</linearGradient>
</defs>
</svg>
