<svg width="365" height="237" viewBox="0 0 365 237" fill="none" xmlns="http://www.w3.org/2000/svg">
<circle cx="182.061" cy="164.45" r="30.6547" fill="#E4FFF2" stroke="#00A86B"/>
<g clip-path="url(#clip0_179528_78965)">
<path d="M169.182 161.255C169.283 161.296 169.39 161.317 169.497 161.317C169.607 161.317 169.717 161.295 169.821 161.251L172.316 160.198C172.74 160.019 172.939 159.53 172.76 159.105C172.581 158.681 172.091 158.482 171.667 158.661L171.057 158.919C172.95 154.608 177.235 151.774 182.002 151.774C187.452 151.774 192.212 155.459 193.577 160.736C193.674 161.112 194.013 161.362 194.384 161.362C194.453 161.362 194.523 161.353 194.593 161.335C195.039 161.22 195.307 160.765 195.192 160.319C193.637 154.305 188.213 150.105 182.002 150.105C176.539 150.105 171.633 153.372 169.494 158.331L169.212 157.663C169.033 157.239 168.544 157.04 168.119 157.219C167.695 157.398 167.496 157.888 167.675 158.312L168.728 160.807C168.814 161.011 168.977 161.172 169.182 161.255Z" fill="#00A86B"/>
<path d="M196.012 170.201L194.959 167.706C194.873 167.502 194.71 167.341 194.505 167.258C194.3 167.174 194.07 167.176 193.867 167.262L191.372 168.315C190.947 168.494 190.748 168.983 190.927 169.408C191.106 169.832 191.596 170.031 192.02 169.852L192.719 169.557C190.873 173.983 186.528 176.908 181.686 176.908C176.235 176.908 171.475 173.223 170.111 167.946C169.995 167.5 169.54 167.232 169.094 167.347C168.648 167.462 168.38 167.917 168.496 168.363C170.05 174.377 175.474 178.577 181.686 178.577C187.179 178.577 192.11 175.273 194.229 170.267L194.475 170.85C194.61 171.168 194.919 171.36 195.244 171.36C195.352 171.36 195.462 171.339 195.568 171.294C195.992 171.115 196.191 170.625 196.012 170.201Z" fill="#00A86B"/>
<path d="M180.175 173.523C180.268 173.556 180.363 173.572 180.458 173.572C180.702 173.572 180.939 173.465 181.101 173.269L188.088 164.817C188.294 164.568 188.338 164.223 188.2 163.93C188.062 163.638 187.769 163.452 187.446 163.452H184.406V155.889C184.406 155.537 184.185 155.223 183.854 155.104C183.523 154.985 183.153 155.086 182.929 155.357L175.941 163.81C175.735 164.059 175.692 164.404 175.829 164.696C175.967 164.989 176.261 165.175 176.584 165.175H179.624V172.738C179.624 173.09 179.844 173.404 180.175 173.523Z" fill="#00A86B"/>
</g>
<path d="M333.385 194.345C333.385 192.966 333.365 191.587 333.327 190.208L308.005 190.912C308.037 192.056 308.052 193.201 308.052 194.345H333.385Z" fill="#E9ECF1"/>
<path d="M332.548 178.589C332.402 177.218 332.237 175.849 332.053 174.482L306.947 177.86C307.1 178.994 307.237 180.131 307.358 181.269L332.548 178.589Z" fill="#E9ECF1"/>
<path d="M330.04 162.971C329.749 161.623 329.44 160.279 329.112 158.939L304.506 164.961C304.778 166.072 305.035 167.188 305.276 168.307L330.04 162.971Z" fill="#E9ECF1"/>
<path d="M325.659 147.001C325.22 145.693 324.764 144.392 324.289 143.097L300.504 151.812C300.898 152.887 301.276 153.967 301.64 155.052L325.659 147.001Z" fill="#E9ECF1"/>
<path d="M319.586 131.734C319.006 130.482 318.409 129.239 317.795 128.004L295.114 139.286C295.624 140.311 296.119 141.343 296.6 142.382L319.586 131.734Z" fill="#E9ECF1"/>
<path d="M311.711 116.969C310.995 115.791 310.262 114.622 309.513 113.464L288.241 127.219C288.862 128.18 289.471 129.15 290.065 130.128L311.711 116.969Z" fill="#E9ECF1"/>
<path d="M302.513 103.55C301.672 102.457 300.816 101.375 299.946 100.306L280.3 116.299C281.023 117.186 281.733 118.084 282.431 118.991L302.513 103.55Z" fill="#E9ECF1"/>
<path d="M292.965 90.4438C292.021 89.4389 291.062 88.4472 290.09 87.4689L272.121 105.324C272.928 106.136 273.723 106.959 274.507 107.793L292.965 90.4438Z" fill="#E9ECF1"/>
<path d="M281.419 79.4093C280.373 78.5113 279.313 77.6279 278.242 76.7593L262.288 96.4361C263.177 97.1569 264.056 97.8901 264.925 98.6354L281.419 79.4093Z" fill="#E9ECF1"/>
<path d="M267.739 68.984C266.596 68.2127 265.442 67.4572 264.278 66.718L250.698 88.1025C251.664 88.7161 252.622 89.3431 253.571 89.9832L267.739 68.984Z" fill="#E9ECF1"/>
<path d="M253.098 59.021C251.874 58.3852 250.642 57.7665 249.401 57.1649L238.351 79.9602C239.381 80.4594 240.404 80.9729 241.42 81.5006L253.098 59.021Z" fill="#00A86B"/>
<path d="M238.418 52.377C237.133 51.8772 235.841 51.3952 234.542 50.9313L226.02 74.7868C227.098 75.1718 228.17 75.5718 229.237 75.9867L238.418 52.377Z" fill="#00A86B"/>
<path d="M222.63 46.6019C221.297 46.2482 219.959 45.9131 218.617 45.5966L212.803 70.2524C213.917 70.5151 215.027 70.7933 216.134 71.0868L222.63 46.6019Z" fill="#00A86B"/>
<path d="M206.613 43.2813C205.249 43.0759 203.882 42.8895 202.514 42.7221L199.438 67.8668C200.574 68.0057 201.709 68.1605 202.84 68.3309L206.613 43.2813Z" fill="#00A86B"/>
<path d="M189.58 41.103C188.202 41.0495 186.823 41.0152 185.444 41L185.165 66.3305C186.309 66.3432 187.454 66.3717 188.597 66.4161L189.58 41.103Z" fill="#00A86B"/>
<path d="M173.595 41.3413C172.219 41.4359 170.845 41.5495 169.472 41.6822L171.91 66.8967C173.049 66.7866 174.19 66.6923 175.332 66.6139L173.595 41.3413Z" fill="#00A86B"/>
<path d="M157.247 43.3779C155.89 43.6238 154.537 43.8885 153.187 44.172L158.394 68.9631C159.514 68.7279 160.637 68.5082 161.764 68.3041L157.247 43.3779Z" fill="#00A86B"/>
<path d="M141.078 47.2499C139.757 47.6454 138.441 48.0593 137.132 48.4914L145.069 72.548C146.156 72.1894 147.247 71.8458 148.344 71.5176L141.078 47.2499Z" fill="#00A86B"/>
<path d="M125.083 53.054C123.815 53.5976 122.556 54.1589 121.304 54.7375L131.933 77.7318C132.972 77.2516 134.017 76.7858 135.069 76.3346L125.083 53.054Z" fill="#00A86B"/>
<path d="M110.756 60.1334C109.554 60.8097 108.362 61.5027 107.179 62.2121L120.211 83.9353C121.192 83.3465 122.182 82.7714 123.179 82.2101L110.756 60.1334Z" fill="#00A86B"/>
<path d="M95.6043 68.1944C94.4887 69.0051 93.3844 69.8314 92.2917 70.6729L107.748 90.7431C108.655 90.0448 109.571 89.3591 110.497 88.6862L95.6043 68.1944Z" fill="#00A86B"/>
<path d="M82.9479 78.4973C81.9277 79.4253 80.9204 80.3674 79.9264 81.3233L97.4856 99.5822C98.3106 98.7889 99.1465 98.007 99.9932 97.2368L82.9479 78.4973Z" fill="#00A86B"/>
<path d="M71.4149 89.9012C70.4712 90.9069 69.5414 91.9256 68.626 92.9571L87.5725 109.772C88.3322 108.916 89.1038 108.071 89.887 107.236L71.4149 89.9012Z" fill="#00A86B"/>
<path d="M60.9011 102.416C60.0732 103.519 59.2607 104.633 58.4638 105.759L79.1385 120.397C79.7999 119.462 80.4742 118.537 81.1613 117.622L60.9011 102.416Z" fill="#00A86B"/>
<path d="M51.748 116.129C51.0472 117.317 50.3628 118.514 49.6952 119.721L71.861 131.984C72.4151 130.983 72.983 129.989 73.5647 129.003L51.748 116.129Z" fill="#00A86B"/>
<path d="M43.8051 131.583C43.2473 132.844 42.707 134.113 42.1845 135.389L65.6277 144.988C66.0614 143.928 66.5097 142.875 66.9727 141.828L43.8051 131.583Z" fill="#00A86B"/>
<path d="M38.0153 146.899C37.5994 148.214 37.2017 149.535 36.8224 150.861L61.1775 157.828C61.4923 156.728 61.8224 155.632 62.1676 154.54L38.0153 146.899Z" fill="#00A86B"/>
<path d="M34.0356 162.304C33.7622 163.655 33.5077 165.011 33.272 166.37L58.2313 170.7C58.4269 169.572 58.6382 168.447 58.8651 167.325L34.0356 162.304Z" fill="#00A86B"/>
<path d="M31.625 179.078C31.5069 180.452 31.4079 181.828 31.3281 183.205L56.6177 184.671C56.684 183.528 56.7661 182.387 56.8641 181.246L31.625 179.078Z" fill="#00A86B"/>
<defs>
<clipPath id="clip0_179528_78965">
<rect width="28.4716" height="28.4716" fill="white" transform="translate(167.664 150.05)"/>
</clipPath>
</defs>
</svg>
