<svg width="364" height="237" viewBox="0 0 364 237" fill="none" xmlns="http://www.w3.org/2000/svg">
<path d="M270.001 184.921C269.468 184.921 268.991 184.829 268.572 184.646C268.155 184.462 267.825 184.207 267.582 183.88C267.341 183.552 267.211 183.171 267.193 182.739H268.413C268.428 182.974 268.507 183.179 268.65 183.352C268.795 183.523 268.984 183.655 269.217 183.748C269.45 183.842 269.709 183.888 269.993 183.888C270.307 183.888 270.584 183.834 270.824 183.725C271.068 183.616 271.258 183.465 271.395 183.271C271.533 183.074 271.601 182.847 271.601 182.591C271.601 182.324 271.533 182.09 271.395 181.888C271.261 181.684 271.063 181.523 270.801 181.407C270.542 181.29 270.229 181.232 269.861 181.232H269.189V180.253H269.861C270.156 180.253 270.415 180.2 270.638 180.094C270.863 179.988 271.039 179.84 271.166 179.651C271.293 179.46 271.356 179.236 271.356 178.979C271.356 178.733 271.301 178.52 271.189 178.339C271.081 178.155 270.925 178.011 270.723 177.908C270.524 177.804 270.288 177.752 270.017 177.752C269.758 177.752 269.516 177.8 269.29 177.896C269.068 177.989 268.887 178.124 268.747 178.3C268.607 178.473 268.532 178.682 268.521 178.925H267.36C267.373 178.495 267.5 178.117 267.741 177.791C267.984 177.465 268.305 177.21 268.704 177.026C269.103 176.842 269.545 176.75 270.032 176.75C270.542 176.75 270.982 176.85 271.353 177.049C271.725 177.246 272.013 177.509 272.215 177.838C272.419 178.166 272.52 178.526 272.518 178.917C272.52 179.363 272.396 179.741 272.145 180.051C271.896 180.362 271.565 180.57 271.151 180.677V180.739C271.679 180.819 272.088 181.029 272.378 181.368C272.67 181.707 272.815 182.128 272.813 182.63C272.815 183.067 272.694 183.46 272.448 183.807C272.204 184.154 271.872 184.427 271.45 184.626C271.028 184.823 270.545 184.921 270.001 184.921ZM276.96 184.945C276.347 184.942 275.823 184.78 275.388 184.459C274.953 184.138 274.62 183.671 274.39 183.057C274.159 182.444 274.044 181.704 274.044 180.84C274.044 179.978 274.159 179.241 274.39 178.63C274.623 178.019 274.957 177.553 275.391 177.232C275.829 176.911 276.352 176.75 276.96 176.75C277.569 176.75 278.091 176.912 278.526 177.236C278.96 177.557 279.293 178.023 279.524 178.634C279.757 179.242 279.873 179.978 279.873 180.84C279.873 181.707 279.758 182.447 279.527 183.061C279.297 183.672 278.964 184.139 278.529 184.463C278.094 184.784 277.571 184.945 276.96 184.945ZM276.96 183.908C277.499 183.908 277.92 183.645 278.223 183.119C278.528 182.594 278.681 181.834 278.681 180.84C278.681 180.179 278.611 179.622 278.471 179.166C278.334 178.708 278.136 178.361 277.877 178.125C277.621 177.887 277.315 177.768 276.96 177.768C276.425 177.768 276.004 178.032 275.698 178.56C275.393 179.088 275.239 179.848 275.236 180.84C275.236 181.502 275.305 182.063 275.442 182.521C275.582 182.977 275.78 183.323 276.036 183.558C276.292 183.791 276.601 183.908 276.96 183.908ZM283.93 184.945C283.317 184.942 282.793 184.78 282.358 184.459C281.923 184.138 281.59 183.671 281.36 183.057C281.129 182.444 281.014 181.704 281.014 180.84C281.014 179.978 281.129 179.241 281.36 178.63C281.593 178.019 281.927 177.553 282.362 177.232C282.799 176.911 283.322 176.75 283.93 176.75C284.539 176.75 285.061 176.912 285.496 177.236C285.93 177.557 286.263 178.023 286.494 178.634C286.727 179.242 286.843 179.978 286.843 180.84C286.843 181.707 286.728 182.447 286.497 183.061C286.267 183.672 285.934 184.139 285.499 184.463C285.064 184.784 284.541 184.945 283.93 184.945ZM283.93 183.908C284.469 183.908 284.89 183.645 285.193 183.119C285.498 182.594 285.651 181.834 285.651 180.84C285.651 180.179 285.581 179.622 285.441 179.166C285.304 178.708 285.106 178.361 284.847 178.125C284.591 177.887 284.285 177.768 283.93 177.768C283.395 177.768 282.974 178.032 282.668 178.56C282.363 179.088 282.209 179.848 282.206 180.84C282.206 181.502 282.275 182.063 282.412 182.521C282.552 182.977 282.75 183.323 283.006 183.558C283.262 183.791 283.571 183.908 283.93 183.908ZM288.24 184.812V176.859H289.44V180.657H289.537L292.873 176.859H294.384L291.176 180.44L294.396 184.812H292.951L290.38 181.259L289.44 182.339V184.812H288.24ZM296.97 184.812L294.765 176.859H296.027L297.576 183.018H297.65L299.262 176.859H300.512L302.124 183.022H302.198L303.743 176.859H305.009L302.8 184.812H301.592L299.918 178.855H299.856L298.182 184.812H296.97Z" fill="#040C2B"/>
<path d="M60.534 184.945C59.9204 184.942 59.3961 184.78 58.9612 184.459C58.5262 184.138 58.1935 183.671 57.9631 183.057C57.7327 182.444 57.6175 181.704 57.6175 180.84C57.6175 179.978 57.7327 179.241 57.9631 178.63C58.1961 178.019 58.5301 177.553 58.9651 177.232C59.4026 176.911 59.9256 176.75 60.534 176.75C61.1424 176.75 61.6641 176.912 62.0991 177.236C62.534 177.557 62.8667 178.023 63.0971 178.634C63.3302 179.242 63.4467 179.978 63.4467 180.84C63.4467 181.707 63.3315 182.447 63.101 183.061C62.8706 183.672 62.5379 184.139 62.103 184.463C61.668 184.784 61.145 184.945 60.534 184.945ZM60.534 183.908C61.0725 183.908 61.4932 183.645 61.7962 183.119C62.1017 182.594 62.2544 181.834 62.2544 180.84C62.2544 180.179 62.1845 179.622 62.0447 179.166C61.9075 178.708 61.7094 178.361 61.4505 178.125C61.1942 177.887 60.8887 177.768 60.534 177.768C59.9981 177.768 59.5774 178.032 59.2719 178.56C58.9664 179.088 58.8123 179.848 58.8097 180.84C58.8097 181.502 58.8783 182.063 59.0156 182.521C59.1554 182.977 59.3534 183.323 59.6097 183.558C59.866 183.791 60.1741 183.908 60.534 183.908ZM64.8438 184.812V176.859H66.0438V180.657H66.1409L69.4769 176.859H70.9876L67.7798 180.44L70.9992 184.812H69.5545L66.9836 181.259L66.0438 182.339V184.812H64.8438ZM73.574 184.812L71.3682 176.859H72.6303L74.1799 183.018H74.2537L75.8653 176.859H77.1158L78.7275 183.022H78.8013L80.3469 176.859H81.613L79.4032 184.812H78.1954L76.5216 178.855H76.4595L74.7857 184.812H73.574Z" fill="#040C2B"/>
<path d="M307.14 162.07C307.14 128.899 293.963 97.0873 270.508 73.6321C247.052 50.177 215.24 37 182.07 37C148.899 37 117.087 50.177 93.6321 73.6321C70.177 97.0872 57 128.899 57 162.07H88.2675C88.2675 137.192 98.1502 113.333 115.742 95.7415C133.333 78.1502 157.192 68.2675 182.07 68.2675C206.948 68.2675 230.807 78.1502 248.398 95.7415C265.989 113.333 275.872 137.192 275.872 162.07H307.14Z" fill="#000ABC"/>
<path d="M121.496 52.6472C101.899 63.4959 85.5745 79.4087 74.2291 98.7229C62.8837 118.037 56.9336 140.044 57.0006 162.443L88.2679 162.35C88.2177 145.55 92.6803 129.045 101.189 114.56C109.698 100.074 121.942 88.1394 136.64 80.0029L121.496 52.6472Z" fill="#DEE8FF"/>
<path d="M244.605 53.7562C225.639 42.8064 204.131 37.0284 182.231 37.0001C160.332 36.9718 138.808 42.6943 119.815 53.5952L135.378 80.7138C149.624 72.5382 165.766 68.2463 182.191 68.2675C198.616 68.2887 214.747 72.6222 228.971 80.8346L244.605 53.7562Z" fill="#81A6FF"/>
<path d="M235.694 72.4851L178.11 160.699L167.846 153.072L235.694 72.4851Z" fill="#040C2B"/>
<path d="M179.937 159.171C177.648 162.251 173.295 162.893 170.215 160.604C167.135 158.315 166.494 153.963 168.782 150.882C171.071 147.802 175.424 147.161 178.504 149.45C181.584 151.738 182.225 156.091 179.937 159.171Z" fill="#040C2B"/>
</svg>
