<svg width="180" height="35" viewBox="0 0 180 35" fill="none" xmlns="http://www.w3.org/2000/svg">
<path d="M179.39 9.61528C179.39 10.61 179.041 11.4545 178.338 12.1619C177.639 12.8604 176.79 13.2185 175.795 13.2185C174.801 13.2185 173.956 12.8693 173.262 12.1619C172.568 11.4633 172.219 10.6145 172.219 9.61528C172.219 8.6161 172.568 7.78933 173.271 7.08637C173.965 6.39224 174.81 6.04297 175.8 6.04297C176.79 6.04297 177.639 6.39224 178.342 7.08637C179.041 7.78049 179.394 8.62494 179.394 9.61528H179.39ZM175.795 6.52488C174.942 6.52488 174.217 6.82552 173.62 7.43122C173.023 8.03692 172.718 8.76199 172.718 9.61528C172.718 10.4686 173.015 11.2069 173.611 11.8126C174.208 12.4183 174.938 12.7189 175.795 12.7189C176.653 12.7189 177.383 12.4183 177.98 11.8126C178.576 11.2069 178.881 10.473 178.881 9.61528C178.881 8.75757 178.581 8.03692 177.98 7.43122C177.374 6.82552 176.649 6.52488 175.795 6.52488ZM175.729 7.63901C176.215 7.63901 176.574 7.68765 176.799 7.78491C177.206 7.95734 177.409 8.28451 177.409 8.77968C177.409 9.12895 177.277 9.3898 177.025 9.5578C176.887 9.64623 176.702 9.70812 176.454 9.74791C176.764 9.79655 176.989 9.92476 177.126 10.1326C177.272 10.3404 177.338 10.5437 177.338 10.7427V11.0301C177.338 11.1185 177.338 11.2157 177.347 11.3263C177.347 11.428 177.369 11.4987 177.383 11.5341L177.409 11.5827H176.755C176.755 11.5827 176.755 11.5562 176.746 11.5429C176.746 11.5297 176.746 11.5164 176.737 11.5031L176.724 11.3793V11.0698C176.724 10.6145 176.6 10.3138 176.353 10.1679C176.207 10.0839 175.946 10.0441 175.583 10.0441H175.035V11.5915H174.341V7.6567H175.72V7.64343L175.729 7.63901ZM176.737 8.83273C176.737 8.54536 176.649 8.35082 176.476 8.25798C176.304 8.16513 176.021 8.11208 175.636 8.11208H175.044V9.54012H175.667C175.963 9.54012 176.185 9.51359 176.326 9.45169C176.596 9.34116 176.733 9.13779 176.733 8.83273H176.737Z" fill="#000ABC"/>
<path d="M18.7942 34.2383C18.8168 34.4687 18.6544 34.6727 18.4315 34.7029C17.3285 34.8502 16.1952 34.8805 15.0695 34.786C13.9551 34.6916 12.8445 34.4876 11.7604 34.1589C11.5262 34.0872 11.3977 33.8227 11.4922 33.5961L11.7906 32.8444C11.8775 32.6215 12.1381 32.5157 12.361 32.6139C13.2827 33.0181 14.2498 33.3354 15.247 33.547C16.267 33.7623 17.3171 33.8681 18.3749 33.8643C18.5902 33.8643 18.7791 34.0267 18.7979 34.2458V34.2383H18.7942Z" fill="#F04924"/>
<path d="M10.2178 33.5995C8.09862 32.7117 6.14563 31.3632 4.5364 29.6368C4.36641 29.4555 4.38907 29.1684 4.58172 29.0135L6.00586 27.8916C6.19474 27.7443 6.47049 27.7783 6.61026 27.9785C7.75864 29.5575 9.26211 30.9174 11.0073 31.9222C11.1962 32.0356 11.2718 32.2698 11.1849 32.4662L10.7693 33.3804C10.6749 33.5844 10.4294 33.6863 10.2178 33.5957V33.5881V33.5995Z" fill="#F04924"/>
<path d="M4.05113 28.4513C3.86225 28.5873 3.60538 28.5458 3.46939 28.3644C2.74787 27.4125 2.1208 26.3812 1.61083 25.282C1.10464 24.1978 0.711778 23.0532 0.44735 21.867C0.394465 21.6253 0.56068 21.3873 0.798665 21.3571L3.59027 20.9642C3.83203 20.9302 4.04735 21.104 4.07002 21.3457C4.16446 22.2675 4.35333 23.1816 4.64043 24.0807C4.93508 24.9949 5.32794 25.8864 5.81524 26.7401C5.92857 26.929 5.87568 27.1669 5.69058 27.2992L4.05491 28.4664L4.04736 28.4551L4.05113 28.4513Z" fill="#FEBE00"/>
<path d="M0.601997 20.5705C0.371567 20.5932 0.167576 20.4308 0.137355 20.2003C-0.0137464 18.9802 -0.0439677 17.7298 0.0655811 16.487C0.178907 15.2555 0.416896 14.024 0.79465 12.8303C0.870201 12.5961 1.13085 12.4715 1.35751 12.5659L4.9084 13.9976C5.13127 14.0845 5.22949 14.3451 5.13127 14.568C4.76863 15.3764 4.48531 16.2301 4.29265 17.1027C4.09244 18.0056 3.98668 18.9348 3.9829 19.8717C3.9829 20.087 3.82046 20.2721 3.60136 20.2948L0.598216 20.5781L0.605773 20.5705H0.601997Z" fill="#FEBE00"/>
<path d="M1.5986 11.7695C1.39461 11.6751 1.29262 11.4295 1.38706 11.218C1.88569 10.0432 2.51276 8.91747 3.25316 7.86731C3.99356 6.82093 4.84351 5.85388 5.79545 4.98127C5.97677 4.81883 6.26386 4.8415 6.41874 5.03415L9.39923 8.83814C9.54655 9.02702 9.51255 9.30278 9.31612 9.44255C7.91843 10.4474 6.70962 11.762 5.80678 13.2805C5.69346 13.4694 5.45925 13.545 5.2666 13.4505L1.60993 11.7657L1.5986 11.7733V11.7695Z" fill="#00A86B"/>
<path d="M7.04132 4.45629C6.90533 4.26742 6.94689 4.01055 7.12821 3.87455C8.17837 3.08127 9.31541 2.40131 10.5318 1.84601C11.7293 1.29449 12.9947 0.87896 14.298 0.591867C14.5398 0.538981 14.774 0.705192 14.808 0.950732L15.6163 6.73038C15.6503 6.97214 15.4766 7.18746 15.2348 7.21013C14.4302 7.28568 13.6331 7.44433 12.8512 7.68609C12.0466 7.93164 11.2608 8.26784 10.5091 8.69092C10.3202 8.79669 10.0822 8.74381 9.95759 8.56626L7.0451 4.46007H7.03377L7.04132 4.45629Z" fill="#00A86B"/>
<path d="M15.66 0.754415C15.6374 0.523984 15.7998 0.32 16.0302 0.297335C17.3675 0.134901 18.7425 0.116013 20.1024 0.24445C21.4586 0.372886 22.8034 0.648648 24.1104 1.07173C24.3446 1.14728 24.4617 1.40793 24.3748 1.63458L21.7985 7.9733C21.7041 8.19618 21.4472 8.2944 21.2243 8.19618C20.5331 7.87887 19.8002 7.62577 19.0409 7.45201C18.2552 7.27068 17.443 7.16869 16.6233 7.15358C16.408 7.15358 16.2304 6.98359 16.2078 6.77205L15.6562 0.758196H15.6638L15.66 0.754415Z" fill="#00A86B"/>
<path d="M25.2354 1.91013C25.3299 1.70614 25.5754 1.60414 25.7869 1.69858C27.0675 2.2501 28.2915 2.93762 29.436 3.75734C30.5693 4.56574 31.6232 5.51012 32.5714 6.5565C32.7338 6.73782 32.7112 7.02492 32.5185 7.17224L26.3347 11.9999C26.1458 12.1473 25.87 12.1133 25.7303 11.9131C24.8728 10.7042 23.7508 9.64276 22.4438 8.83814C22.2625 8.72482 22.1907 8.4906 22.2814 8.29795L25.2392 1.90257V1.91013H25.2354Z" fill="#00A86B"/>
<path d="M11.3643 18.5695L17.8012 27.8812C17.9145 28.0398 18.1412 28.0625 18.2772 27.9227L35.8579 9.89629C36.1223 9.62809 35.7596 9.205 35.4537 9.43165L18.3829 22.0184C18.2847 22.094 18.1412 22.1015 18.0354 22.0298L11.7798 18.12C11.4965 17.9425 11.1678 18.2824 11.3643 18.562V18.5695Z" fill="#000ABC"/>
<path d="M43.7985 27.2209C42.5993 26.5642 41.6672 25.649 40.9892 24.4626C40.3113 23.2762 39.9766 21.933 39.9766 20.4288C39.9766 18.9246 40.3113 17.5772 40.9892 16.395C41.6672 15.2086 42.6036 14.2934 43.7985 13.6367C44.9976 12.9799 46.345 12.6494 47.8534 12.6494C49.0695 12.6494 50.1965 12.8867 51.2431 13.3655C52.2897 13.8401 53.1498 14.5095 53.8447 15.3654C54.5354 16.2213 54.9718 17.1959 55.1498 18.289L51.938 18.6662C51.7346 17.7509 51.2516 17.0094 50.4974 16.4162C49.7474 15.8315 48.883 15.5349 47.917 15.5349C47.0483 15.5349 46.273 15.7468 45.5865 16.162C44.9001 16.5772 44.3705 17.1577 43.9891 17.895C43.6078 18.6323 43.4171 19.4797 43.4171 20.4373C43.4171 21.3949 43.6078 22.2423 43.9891 22.9838C44.3705 23.7295 44.9044 24.3143 45.5865 24.7295C46.273 25.1447 47.0483 25.3566 47.917 25.3566C48.8576 25.3566 49.7008 25.0685 50.4592 24.4922C51.2177 23.9202 51.7092 23.1829 51.9422 22.2889L55.1752 22.7253C55.0099 23.7931 54.582 24.738 53.8998 25.5769C53.2134 26.4116 52.3448 27.0642 51.2982 27.526C50.2432 27.9879 49.0991 28.2251 47.8576 28.2251C46.3492 28.2251 45.0018 27.8946 43.8027 27.2379H43.8112L43.7985 27.2209Z" fill="#000ABC"/>
<path d="M57.1562 12.4326H60.2239V18.6316H60.4273C61.2451 17.4536 62.2705 16.8689 63.5162 16.8689C64.3043 16.8689 65.0034 17.0596 65.6094 17.4409C66.2153 17.8223 66.6898 18.3434 67.033 19.0087C67.3762 19.6739 67.5415 20.4239 67.5415 21.2671V27.8177H64.4738V21.7247C64.4738 21.0594 64.2916 20.5256 63.9272 20.1188C63.5586 19.712 63.0713 19.5086 62.4654 19.5086C61.8595 19.5086 61.3129 19.7332 60.8807 20.1739C60.4443 20.6145 60.2282 21.1738 60.2282 21.8518V27.8219H57.1605V12.4411L57.1562 12.4326Z" fill="#000ABC"/>
<path d="M70.0524 15.2168C69.705 14.8821 69.5312 14.4457 69.5312 13.9203C69.5312 13.3948 69.7007 12.9669 70.0524 12.6237C70.3956 12.289 70.8405 12.1152 71.3829 12.1152C71.9252 12.1152 72.3617 12.2847 72.7133 12.6237C73.0566 12.9669 73.2345 13.3948 73.2345 13.9203C73.2345 14.4457 73.065 14.8821 72.7133 15.2168C72.3701 15.56 71.9252 15.7253 71.3829 15.7253C70.8405 15.7253 70.4041 15.5558 70.0524 15.2168ZM69.849 17.1998H72.9167V27.8181H69.849V17.1998Z" fill="#000ABC"/>
<path d="M75.3438 12.4326H78.4114V27.8134H75.3438V12.4326Z" fill="#000ABC"/>
<path d="M80.7344 12.4326H83.8021V27.8134H80.7344V12.4326Z" fill="#000ABC"/>
<path d="M88.4945 27.4333C87.6047 26.9588 86.9098 26.2808 86.4098 25.4122C85.9098 24.5436 85.6641 23.5479 85.6641 22.425C85.6641 21.3022 85.9141 20.3658 86.4098 19.5226C86.9098 18.6794 87.6004 18.0269 88.4818 17.5608C89.3631 17.0989 90.3758 16.8701 91.5113 16.8701C92.6469 16.8701 93.6257 17.1074 94.4858 17.5735C95.3502 18.0396 96.0196 18.7006 96.4984 19.5395C96.9772 20.3827 97.2145 21.3573 97.2145 22.4631C97.2145 22.9292 97.2018 23.247 97.1764 23.3996H88.8419C88.969 24.1622 89.2826 24.7639 89.7826 25.2046C90.2825 25.6452 90.9139 25.8698 91.6596 25.8698C92.2401 25.8698 92.7528 25.7385 93.1935 25.4758C93.6341 25.2131 93.9773 24.8656 94.2061 24.4165L96.8205 25.0817C96.49 26.0351 95.8459 26.785 94.8926 27.3316C93.9392 27.8782 92.8206 28.1494 91.5367 28.1494C90.4054 28.1494 89.3928 27.9121 88.503 27.4333L88.4945 27.4418V27.4333ZM94.0833 21.4886C93.9858 20.798 93.6934 20.2302 93.2147 19.798C92.7274 19.3616 92.1342 19.1455 91.4308 19.1455C90.7275 19.1455 90.1597 19.3573 89.6978 19.7768C89.236 20.1963 88.9394 20.7725 88.8165 21.4886H94.0833Z" fill="#000ABC"/>
<path d="M99.1058 17.2005H102.135V18.6538H102.364C102.601 18.1538 102.957 17.7513 103.432 17.4504C103.906 17.1496 104.428 16.9971 104.978 16.9971C105.419 16.9971 105.822 17.0903 106.182 17.2682V20.0266C105.906 19.8995 105.601 19.8021 105.279 19.7385C104.957 19.6707 104.673 19.6326 104.436 19.6326C103.758 19.6326 103.212 19.891 102.796 20.4037C102.381 20.9164 102.178 21.5817 102.178 22.391V27.823H99.11V17.2047H99.1016L99.1058 17.2005Z" fill="#000ABC"/>
<path d="M111.252 27.2209C110.052 26.5642 109.12 25.649 108.442 24.4626C107.764 23.2762 107.43 21.933 107.43 20.4288C107.43 18.9246 107.764 17.5772 108.442 16.395C109.12 15.2086 110.057 14.2934 111.252 13.6367C112.451 12.9799 113.798 12.6494 115.307 12.6494C116.523 12.6494 117.65 12.8867 118.696 13.3655C119.743 13.8401 120.603 14.5095 121.298 15.3654C121.989 16.2213 122.425 17.1959 122.603 18.289L119.391 18.6662C119.188 17.7509 118.705 17.0094 117.951 16.4162C117.201 15.8315 116.336 15.5349 115.37 15.5349C114.501 15.5349 113.726 15.7468 113.04 16.162C112.353 16.5772 111.824 17.1577 111.442 17.895C111.061 18.6323 110.87 19.4797 110.87 20.4373C110.87 21.3949 111.061 22.2423 111.442 22.9838C111.824 23.7295 112.357 24.3143 113.04 24.7295C113.726 25.1447 114.501 25.3566 115.37 25.3566C116.311 25.3566 117.154 25.0685 117.912 24.4922C118.671 23.9202 119.162 23.1829 119.395 22.2889L122.628 22.7253C122.463 23.7931 122.035 24.738 121.353 25.5769C120.667 26.4116 119.798 27.0642 118.751 27.526C117.696 27.9879 116.552 28.2251 115.311 28.2251C113.802 28.2251 112.455 27.8946 111.256 27.2379H111.264L111.252 27.2209Z" fill="#000ABC"/>
<path d="M124.602 12.4326H127.669V18.6316H127.873C128.69 17.4536 129.716 16.8689 130.962 16.8689C131.75 16.8689 132.449 17.0596 133.055 17.4409C133.661 17.8223 134.135 18.3434 134.478 19.0087C134.822 19.6739 134.987 20.4239 134.987 21.2671V27.8177H131.919V21.7247C131.919 21.0594 131.737 20.5256 131.373 20.1188C131.004 19.712 130.517 19.5086 129.911 19.5086C129.305 19.5086 128.758 19.7332 128.326 20.1739C127.89 20.6145 127.673 21.1738 127.673 21.8518V27.8219H124.606V12.4411L124.602 12.4326Z" fill="#000ABC"/>
<path d="M139.549 27.4333C138.659 26.9588 137.964 26.2808 137.464 25.4122C136.965 24.5436 136.719 23.5479 136.719 22.425C136.719 21.3022 136.969 20.3658 137.464 19.5226C137.964 18.6794 138.655 18.0269 139.536 17.5608C140.418 17.0989 141.43 16.8701 142.566 16.8701C143.702 16.8701 144.68 17.1074 145.54 17.5735C146.405 18.0396 147.074 18.7006 147.553 19.5395C148.032 20.3827 148.269 21.3573 148.269 22.4631C148.269 22.9292 148.256 23.247 148.231 23.3996H139.897C140.024 24.1622 140.337 24.7639 140.837 25.2046C141.337 25.6452 141.969 25.8698 142.714 25.8698C143.295 25.8698 143.807 25.7385 144.248 25.4758C144.689 25.2131 145.032 24.8656 145.261 24.4165L147.875 25.0817C147.545 26.0351 146.901 26.785 145.947 27.3316C144.994 27.8782 143.875 28.1494 142.591 28.1494C141.46 28.1494 140.447 27.9121 139.558 27.4333L139.549 27.4418V27.4333ZM145.138 21.4886C145.04 20.798 144.748 20.2302 144.269 19.798C143.782 19.3616 143.189 19.1455 142.485 19.1455C141.782 19.1455 141.214 19.3573 140.752 19.7768C140.291 20.1963 139.994 20.7725 139.871 21.4886H145.138Z" fill="#000ABC"/>
<path d="M152.537 27.4405C151.669 26.9744 150.982 26.3092 150.495 25.4533C149.999 24.5974 149.758 23.6186 149.758 22.5127C149.758 21.4068 149.999 20.4068 150.482 19.5594C150.961 18.712 151.639 18.051 152.516 17.5764C153.385 17.1103 154.393 16.873 155.525 16.873C156.478 16.873 157.347 17.0425 158.126 17.3815C158.91 17.7162 159.55 18.1993 160.041 18.8221C160.541 19.4492 160.846 20.1695 160.957 21L158.092 21.3771C157.952 20.7966 157.643 20.3221 157.173 19.9535C156.698 19.5848 156.16 19.4069 155.567 19.4069C154.779 19.4069 154.126 19.695 153.605 20.2755C153.084 20.856 152.83 21.6059 152.83 22.5127C152.83 23.4194 153.088 24.1694 153.601 24.7499C154.114 25.3304 154.758 25.6185 155.55 25.6185C156.156 25.6185 156.694 25.4363 157.169 25.0719C157.635 24.7033 157.952 24.2414 158.105 23.6694L160.986 24.0253C160.859 24.8558 160.546 25.5804 160.046 26.2032C159.546 26.8261 158.902 27.3007 158.118 27.6439C157.334 27.9786 156.478 28.1523 155.537 28.1523C154.419 28.1523 153.423 27.915 152.55 27.4489L152.542 27.4405H152.537Z" fill="#000ABC"/>
<path d="M162.859 12.4326H165.927V21.3264H166.13L169.533 17.1994H173.245L168.83 22.3009L173.334 27.8177H169.601L166.139 23.2966H165.936V27.8177H162.868V12.4369H162.859V12.4326Z" fill="#000ABC"/>
</svg>
